<svg id="Capa_1" enable-background="new 0 0 512 512" height="512" viewBox="0 0 512 512" width="512" xmlns="http://www.w3.org/2000/svg"><g><g><g><path d="m99.618 283.013h278.976c4.142 0 7.499-3.358 7.499-7.499 0-4.142-3.358-7.499-7.499-7.499h-278.976c-4.142 0-7.499 3.358-7.499 7.499 0 4.142 3.358 7.499 7.499 7.499z"/><path d="m99.618 336.096h278.976c4.142 0 7.499-3.358 7.499-7.499s-3.358-7.499-7.499-7.499h-278.976c-4.142 0-7.499 3.358-7.499 7.499s3.358 7.499 7.499 7.499z"/><path d="m378.594 374.181h-120.892c-4.142 0-7.499 3.358-7.499 7.499s3.358 7.499 7.499 7.499h120.892c4.142 0 7.499-3.358 7.499-7.499s-3.357-7.499-7.499-7.499z"/><path d="m378.594 427.265h-120.892c-4.142 0-7.499 3.358-7.499 7.499 0 4.142 3.358 7.499 7.499 7.499h120.892c4.142 0 7.499-3.358 7.499-7.499.001-4.142-3.357-7.499-7.499-7.499z"/><path d="m99.618 206.3c4.142 0 7.499-3.358 7.499-7.499v-47.62l34.795 50.386c2.263 3.268 6.013 4.664 9.555 3.559 3.628-1.133 5.972-4.566 5.971-8.817l-.671-69.391c-.04-4.117-3.389-7.427-7.497-7.427-.024 0-.049 0-.074 0-4.141.04-7.466 3.43-7.426 7.572l.47 48.582-36.45-52.782c-1.865-2.7-5.269-3.875-8.403-2.898s-5.268 3.878-5.268 7.16v71.677c0 4.141 3.358 7.498 7.499 7.498z"/><path d="m178.358 205.973h29.982c4.142 0 7.499-3.358 7.499-7.499s-3.358-7.499-7.499-7.499h-22.483v-20.579h20.272c4.142 0 7.499-3.358 7.499-7.499 0-4.142-3.358-7.499-7.499-7.499h-20.272v-20.579h22.483c4.142 0 7.499-3.358 7.499-7.499s-3.358-7.499-7.499-7.499h-29.982c-4.142 0-7.499 3.358-7.499 7.499v71.156c0 4.139 3.357 7.497 7.499 7.497z"/><path d="m356.986 206.3c14.184 0 26.551-9.348 28.764-21.745 1.682-9.424-2.67-21.763-19.933-28.13-9.058-3.342-17.474-6.986-19.8-8.006-1.898-1.443-2.814-3.711-2.462-6.164.222-1.548 1.324-5.324 6.747-6.958 10.908-3.286 20.865 4.632 21.124 4.84 3.169 2.637 7.879 2.219 10.535-.941 2.665-3.171 2.255-7.901-.915-10.567-.653-.549-16.205-13.379-35.07-7.694-9.357 2.819-15.974 10.172-17.268 19.188-1.209 8.425 2.441 16.528 9.526 21.147.332.216.679.405 1.04.566.414.185 10.259 4.568 21.351 8.659 7.392 2.726 11.167 6.89 10.358 11.421-.823 4.612-6.285 9.383-13.998 9.383-7.547 0-14.825-3.058-19.468-8.181-2.781-3.068-7.523-3.302-10.593-.52-3.069 2.781-3.302 7.524-.52 10.593 7.439 8.209 18.872 13.109 30.582 13.109z"/><path d="m240.503 199.178c.071.359.168.712.291 1.056 1.292 3.635 4.739 6.066 8.593 6.066h.063c3.879-.027 7.324-2.512 8.572-6.185.022-.065.043-.131.063-.196l14.686-47.447 14.62 47.458c.031.102.065.203.101.303 1.292 3.635 4.739 6.066 8.593 6.066h.063c3.879-.027 7.324-2.512 8.572-6.185.105-.311.19-.628.255-.95l14.047-70.58c.808-4.062-1.829-8.011-5.892-8.819-4.065-.809-8.011 1.829-8.819 5.892l-9.462 47.541-14.916-48.416c-1.219-3.958-5.417-6.178-9.375-4.959-2.724.839-4.625 3.089-5.148 5.7l-14.758 47.679-9.429-47.667c-.804-4.064-4.753-6.705-8.812-5.902-4.063.804-6.706 4.749-5.902 8.812z"/><path d="m464.233 152.865c4.142 0 7.499-3.358 7.499-7.499v-121.753c0-13.02-10.592-23.613-23.612-23.613h-367.81c-22.078 0-40.04 17.961-40.042 40.041v.002 446.135c0 14.238 11.583 25.822 25.822 25.822h338.364c14.239 0 25.822-11.584 25.822-25.823v-6.997h15.634c14.239 0 25.822-11.584 25.822-25.822v-272.932c0-4.142-3.358-7.499-7.499-7.499-4.142 0-7.499 3.358-7.499 7.499v272.932c0 5.968-4.855 10.823-10.823 10.823h-15.634v-368.79c0-16.711-13.595-30.305-30.305-30.305h-319.662c-13.809 0-25.043-11.234-25.043-25.043 0-13.809 11.234-25.043 25.043-25.043h367.607c4.862 0 8.817 3.955 8.817 8.817s-3.955 8.817-8.817 8.817h-319.79c-4.142 0-7.499 3.358-7.499 7.499s3.358 7.499 7.499 7.499h319.79c3.114 0 6.088-.607 8.817-1.699v99.433c0 4.142 3.357 7.499 7.499 7.499zm-383.923-72.78h319.661c8.44 0 15.306 6.867 15.306 15.306v390.786c0 5.968-4.855 10.824-10.823 10.824h-338.364c-5.968 0-10.823-4.856-10.823-10.824v-414.911c6.862 5.514 15.574 8.819 25.043 8.819z"/><path d="m110.477 442.264h102.297c10.123 0 18.358-8.236 18.358-18.358v-47.709c0-10.123-8.236-18.358-18.358-18.358h-32.879c-4.142 0-7.499 3.358-7.499 7.499s3.358 7.499 7.499 7.499h32.879c1.852 0 3.36 1.507 3.36 3.36v47.709c0 1.852-1.507 3.36-3.36 3.36h-102.297c-1.852 0-3.36-1.507-3.36-3.36v-47.709c0-1.852 1.507-3.36 3.36-3.36h34.359c4.142 0 7.499-3.358 7.499-7.499s-3.358-7.499-7.499-7.499h-34.359c-10.123 0-18.358 8.236-18.358 18.358v47.709c0 10.122 8.236 18.358 18.358 18.358z"/></g></g></g></svg>